<svg id="Capa_1" enable-background="new 0 0 512 512" height="512" viewBox="0 0 512 512" width="512" xmlns="http://www.w3.org/2000/svg"><g><path d="m256 89.356 24.333-43.69-24.333-45.666c-34.711 0-67.802 6.922-97.987 19.439l-15.68 59.391 49.898 23.219c19.654-8.171 41.192-12.693 63.769-12.693z" fill="#ffde55"/><path d="m192.232 102.049-34.218-82.61c-31.289 12.975-59.454 31.962-83.033 55.542l14.376 53.019 48.864 10.22c15.347-15.346 33.669-27.714 54.011-36.171z" fill="#ffeb99"/><path d="m138.221 138.22-63.24-63.24c-23.579 23.579-42.567 51.744-55.541 83.033l31.585 43.653 51.025-9.435c8.457-20.341 20.824-38.664 36.171-54.011z" fill="#ffde55"/><path d="m102.05 192.232-82.61-34.218c-12.518 30.184-19.44 63.275-19.44 97.986l45 21 44.357-21c0-22.577 4.522-44.115 12.693-63.768z" fill="#ffeb99"/><path d="m89.357 256h-89.357c0 34.711 6.922 67.802 19.439 97.987h55.541l27.069-34.218c-8.17-19.654-12.692-41.192-12.692-63.769z" fill="#ffde55"/><path d="m102.05 319.768-82.61 34.218c12.975 31.288 31.962 59.453 55.541 83.033l58.625-19.353 4.614-43.887c-15.346-15.347-27.713-33.669-36.17-54.011z" fill="#ffeb99"/><path d="m138.221 373.779-63.24 63.24c23.579 23.579 51.744 42.567 83.033 55.541l41.153-39.917-6.935-42.693c-20.342-8.456-38.665-20.824-54.011-36.171z" fill="#ffde55"/><path d="m192.232 409.951-34.218 82.61c30.184 12.517 63.275 19.439 97.986 19.439l24.333-51.025-24.333-38.331c-22.577 0-44.115-4.522-63.768-12.693z" fill="#ffeb99"/><path d="m256 422.644v89.356c34.711 0 67.802-6.922 97.987-19.439v-59.391l-34.218-23.219c-19.654 8.171-41.192 12.693-63.769 12.693z" fill="#ffde55"/><path d="m319.768 409.951 34.218 82.61c31.288-12.975 59.453-31.962 83.033-55.541l-14.376-55.353-48.864-7.887c-15.346 15.346-33.669 27.714-54.011 36.171z" fill="#ffb655"/><path d="m373.779 373.779 63.24 63.24c23.579-23.579 42.566-51.744 55.541-83.033l-39.917-45.653-42.693 11.435c-8.457 20.342-20.824 38.664-36.171 54.011z" fill="#ffde55"/><path d="m422.643 256c0 22.577-4.522 44.115-12.693 63.768l82.61 34.218c12.518-30.184 19.44-63.275 19.44-97.986l-51.025-23.667z" fill="#ffb655"/><path d="m422.643 256h89.357c0-34.711-6.922-67.802-19.439-97.987l-55.541-5.68-27.069 39.898c8.17 19.654 12.692 41.192 12.692 63.769z" fill="#ffde55"/><path d="m409.95 192.232 82.61-34.218c-12.975-31.288-31.962-59.453-55.541-83.033l-53.353 9.353-9.887 53.887c15.347 15.346 27.714 33.669 36.171 54.011z" fill="#ffb655"/><path d="m373.779 138.22 63.24-63.24c-23.579-23.579-51.744-42.567-83.033-55.541l-39.653 31.585 5.435 51.025c20.342 8.457 38.664 20.825 54.011 36.171z" fill="#ffde55"/><path d="m319.768 102.049 34.218-82.61c-30.184-12.517-63.275-19.439-97.986-19.439v89.356c22.577 0 44.115 4.522 63.768 12.693z" fill="#ffb655"/><path d="m256 59.356-20.001 196.644 20.001 196.644c108.429 0 196.643-88.214 196.643-196.644s-88.214-196.644-196.643-196.644z" fill="#e1ebf0"/><path d="m59.357 256c0 108.43 88.214 196.644 196.643 196.644v-393.288c-108.429 0-196.643 88.214-196.643 196.644z" fill="#fff5f5"/><path d="m256 89.356-20.001 166.644 20.001 166.644c91.887 0 166.643-74.756 166.643-166.644s-74.756-166.644-166.643-166.644z" fill="#b4d2d7"/><path d="m89.357 256c0 91.888 74.756 166.644 166.643 166.644v-333.288c-91.887 0-166.643 74.756-166.643 166.644z" fill="#e1ebf0"/><path d="m311 200.999v-30h-40v-30h-15l-10.001 42.504 10.001 17.496z" fill="#87a0af"/><path d="m281 271v40.001h-25l-10.001 14.001 10.001 45.999h15v-30h40v-100.001h-55l-10.001 15 10.001 15z" fill="#87a0af"/><g fill="#b4d2d7"><path d="m231 200.999h25v-60h-15v30h-40v100.001h55v-30h-25z"/><path d="m201 311.001v30h40v30h15v-60z"/></g></g></svg>